<svg xmlns="http://www.w3.org/2000/svg" viewBox="0 0 1043 804.57"><defs><style>.cls-1{fill:#756b6b;}.cls-2{fill:#2f4459;}.cls-3{fill:#648dbf;}.cls-4{fill:#83b6ff;}.cls-5{fill:#9e9c92;}.cls-6{fill:#d3d1c1;}.cls-7{fill:#c1bfb4;}.cls-8{fill:#fffceb;}.cls-9{fill:#42413e;}.cls-10{fill:#0b1014;}.cls-11{fill:#44433f;}.cls-12,.cls-16{fill:none;stroke-miterlimit:10;}.cls-12{stroke:#31485b;stroke-linecap:round;stroke-width:6px;}.cls-13{fill:#7c7b74;}.cls-14{fill:#a89898;}.cls-15{fill:#ccbaba;}.cls-16{stroke:#7c3c3c;stroke-width:9px;}.cls-17{fill:#7c3c3c;}.cls-18{fill:#8c4545;}</style></defs><title>bedAsset 12</title><g id="Layer_2" data-name="Layer 2"><g id="Layer_1-2" data-name="Layer 1"><polygon class="cls-1" points="687 593.07 460 486.07 460 591.07 506 623.07 687 593.07"/><rect class="cls-2" x="54.85" y="473.71" width="235.53" height="43.56"/><polygon class="cls-2" points="116.15 502.74 54.85 502.74 54.85 662.45 102.44 662.45 116.15 502.74"/><polygon class="cls-2" points="289.57 502.74 228.27 502.74 245.21 660.03 289.57 662.45 289.57 502.74"/><path class="cls-3" d="M294.81,445.48h0A26.21,26.21,0,0,0,321,419.26V226.08a37.1,37.1,0,0,0-37.1-37.1h-1.21a14.12,14.12,0,0,0-14.12,14.12V419.26A26.21,26.21,0,0,0,294.81,445.48Z"/><path class="cls-4" d="M300.46,445.48h0a26.21,26.21,0,0,0,26.21-26.21V226.08a37.1,37.1,0,0,0-37.1-37.1h-1.21a14.12,14.12,0,0,0-14.12,14.12V419.26A26.21,26.21,0,0,0,300.46,445.48Z"/><rect class="cls-5" x="39.52" y="170.42" width="262.15" height="315.38" rx="33.86" ry="33.86"/><rect class="cls-6" x="61.3" y="181.72" width="237.95" height="286.34" rx="30.74" ry="30.74"/><ellipse class="cls-3" cx="198.83" cy="126.46" rx="98.81" ry="126.23"/><ellipse class="cls-4" cx="192.38" cy="126.23" rx="98.81" ry="126.23"/><ellipse class="cls-7" cx="277.47" cy="74.03" rx="35.49" ry="22.99"/><ellipse class="cls-8" cx="276.26" cy="74.03" rx="32.67" ry="22.99"/><circle class="cls-9" cx="280.7" cy="73.63" r="10.49"/><ellipse class="cls-3" cx="252.51" cy="100.34" rx="38.72" ry="20.46" transform="translate(-18.26 122.94) rotate(-26.44)"/><ellipse class="cls-4" cx="249.24" cy="104.28" rx="38.72" ry="18.55" transform="translate(-20.36 121.9) rotate(-26.44)"/><circle class="cls-3" cx="233.92" cy="103.48" r="4.03"/><circle class="cls-3" cx="258.11" cy="110.73" r="4.03"/><path class="cls-3" d="M93.57,119.61c.2,69.09,51,125,113.73,125s113.53-55.94,113.73-125Z"/><ellipse class="cls-7" cx="198.42" cy="74.03" rx="35.49" ry="22.99"/><ellipse class="cls-8" cx="198.42" cy="74.03" rx="33.07" ry="22.99"/><path class="cls-3" d="M312.52,70.4c-2.69-11-17.35-19.36-35-19.36s-32.36,8.39-35,19.36Z"/><circle class="cls-9" cx="200.04" cy="73.63" r="10.49"/><path class="cls-3" d="M233.47,68.79c-2.69-11-17.35-19.36-35-19.36s-32.36,8.39-35,19.36Z"/><path class="cls-3" d="M45.57,445.48h0a26.21,26.21,0,0,1-26.21-26.21V226.08A37.1,37.1,0,0,1,56.46,189h1.21a14.12,14.12,0,0,1,14.12,14.12V419.26A26.21,26.21,0,0,1,45.57,445.48Z"/><path class="cls-4" d="M39.93,445.48h0a26.21,26.21,0,0,1-26.21-26.21V226.08A37.1,37.1,0,0,1,50.82,189H52a14.12,14.12,0,0,1,14.12,14.12V419.26A26.21,26.21,0,0,1,39.93,445.48Z"/><path class="cls-10" d="M20.3,662.45H96.12a6.32,6.32,0,0,1,6.32,6.32v14a6.32,6.32,0,0,1-6.32,6.32H6.32A6.32,6.32,0,0,1,0,682.75v0a20.3,20.3,0,0,1,20.3-20.3Z"/><path class="cls-10" d="M245.88,659.23h89.8a6.32,6.32,0,0,1,6.32,6.32v14a6.32,6.32,0,0,1-6.32,6.32H259.86a20.3,20.3,0,0,1-20.3-20.3v0a6.32,6.32,0,0,1,6.32-6.32Z" transform="translate(581.56 1345.07) rotate(-180)"/><path class="cls-11" d="M264.57.23H156.88A32.67,32.67,0,0,0,124.22,32.9v2l133.9-5.65Z"/><path class="cls-12" d="M187.13,173.65a223.7,223.7,0,0,1,85.5-7.26"/><rect class="cls-5" x="417" y="275.07" width="43" height="397"/><rect class="cls-13" x="423" y="277.07" width="43" height="397"/><polygon class="cls-14" points="506 474.07 460 468.07 460 573.07 506 598.07 506 474.07"/><polygon class="cls-1" points="985 544.07 549 527.07 549 632.07 1043 632.07 985 544.07"/><polygon class="cls-14" points="991 486.07 549 486.07 549 614.07 982 598.07 991 486.07"/><path class="cls-15" d="M997,406.07c-139.94-68.4-333.14-15.35-537,62l82,27,441-9Z"/><rect class="cls-13" x="516" y="316.07" width="43" height="397"/><rect class="cls-5" x="506" y="316.07" width="43" height="397"/><ellipse class="cls-16" cx="549" cy="776.07" rx="80" ry="24"/><polygon class="cls-17" points="281 769.07 448 769.07 448 788.07 285 800.07 235 788.07 281 769.07"/><path class="cls-18" d="M437,769.07c0,8.28,9.51,23,20,23s19-6.72,19-15-8.51-15-19-15S437,760.79,437,769.07Z"/></g></g></svg>