<svg xmlns="http://www.w3.org/2000/svg" xmlns:xlink="http://www.w3.org/1999/xlink" viewBox="0 0 1200 697.07"><defs><style>.cls-1,.cls-15,.cls-22{fill:none;}.cls-2{fill:#4a4c3b;}.cls-3{fill:#1a281a;}.cls-4{clip-path:url(#clip-path);}.cls-5{fill:#2f4459;}.cls-6{fill:#648dbf;}.cls-7{fill:#83b6ff;}.cls-8{fill:#9e9c92;}.cls-9{fill:#d3d1c1;}.cls-10{fill:#c1bfb4;}.cls-11{fill:#fffceb;}.cls-12{fill:#42413e;}.cls-13{fill:#0b1014;}.cls-14{fill:#44433f;}.cls-15{stroke:#31485b;stroke-linecap:round;stroke-width:6px;}.cls-15,.cls-22{stroke-miterlimit:10;}.cls-16{fill:#558458;}.cls-17{fill:#314c32;}.cls-18{fill:#8ca58b;}.cls-19,.cls-20{fill:#d8e2af;}.cls-20{opacity:0.55;}.cls-21{fill:#60604c;}.cls-22{stroke:#004924;}</style><clipPath id="clip-path" transform="translate(0 -34.93)"><rect class="cls-1" x="390" width="397" height="352"/></clipPath></defs><title>carAsset 2</title><g id="Layer_2" data-name="Layer 2"><g id="Layer_1-2" data-name="Layer 1"><rect class="cls-2" x="344" y="153.07" width="285" height="164"/><ellipse class="cls-3" cx="929" cy="558.08" rx="83" ry="112.01"/><ellipse class="cls-3" cx="359" cy="526.11" rx="83" ry="112.01"/><g class="cls-4"><rect class="cls-5" x="471.85" y="473.71" width="235.53" height="43.56"/><polygon class="cls-5" points="533.15 502.74 471.85 502.74 471.85 662.45 519.44 662.45 533.15 502.74"/><polygon class="cls-5" points="706.57 502.74 645.27 502.74 662.21 660.03 706.57 662.45 706.57 502.74"/><path class="cls-6" d="M711.81,480.41h0A26.21,26.21,0,0,0,738,454.19V261a37.1,37.1,0,0,0-37.1-37.1h-1.21A14.12,14.12,0,0,0,685.6,238V454.19A26.21,26.21,0,0,0,711.81,480.41Z" transform="translate(0 -34.93)"/><path class="cls-7" d="M717.46,480.41h0a26.21,26.21,0,0,0,26.21-26.21V261a37.1,37.1,0,0,0-37.1-37.1h-1.21A14.12,14.12,0,0,0,691.25,238V454.19A26.21,26.21,0,0,0,717.46,480.41Z" transform="translate(0 -34.93)"/><rect class="cls-8" x="456.52" y="170.42" width="262.15" height="315.38" rx="33.86" ry="33.86"/><rect class="cls-9" x="478.3" y="181.72" width="237.95" height="286.34" rx="30.74" ry="30.74"/><ellipse class="cls-6" cx="615.83" cy="126.46" rx="98.81" ry="126.23"/><ellipse class="cls-7" cx="609.37" cy="126.23" rx="98.81" ry="126.23"/><ellipse class="cls-10" cx="694.47" cy="74.03" rx="35.49" ry="22.99"/><ellipse class="cls-11" cx="693.26" cy="74.03" rx="32.67" ry="22.99"/><circle class="cls-12" cx="697.7" cy="73.63" r="10.49"/><ellipse class="cls-6" cx="669.51" cy="135.27" rx="38.72" ry="20.46" transform="translate(9.81 277.37) rotate(-26.44)"/><ellipse class="cls-7" cx="666.24" cy="139.21" rx="38.72" ry="18.55" transform="translate(7.71 276.32) rotate(-26.44)"/><circle class="cls-6" cx="650.92" cy="103.48" r="4.03"/><circle class="cls-6" cx="675.11" cy="110.73" r="4.03"/><path class="cls-6" d="M510.57,154.54c.2,69.09,51,125,113.73,125s113.53-55.94,113.73-125Z" transform="translate(0 -34.93)"/><ellipse class="cls-10" cx="615.42" cy="74.03" rx="35.49" ry="22.99"/><ellipse class="cls-11" cx="615.42" cy="74.03" rx="33.07" ry="22.99"/><path class="cls-6" d="M729.52,105.33c-2.69-11-17.35-19.36-35-19.36s-32.36,8.39-35,19.36Z" transform="translate(0 -34.93)"/><circle class="cls-12" cx="617.04" cy="73.63" r="10.49"/><path class="cls-6" d="M650.47,103.72c-2.69-11-17.35-19.36-35-19.36s-32.36,8.39-35,19.36Z" transform="translate(0 -34.93)"/><path class="cls-6" d="M462.57,480.41h0a26.21,26.21,0,0,1-26.21-26.21V261a37.1,37.1,0,0,1,37.1-37.1h1.21A14.12,14.12,0,0,1,488.79,238V454.19A26.21,26.21,0,0,1,462.57,480.41Z" transform="translate(0 -34.93)"/><path class="cls-7" d="M456.93,480.41h0a26.21,26.21,0,0,1-26.21-26.21V261a37.1,37.1,0,0,1,37.1-37.1H469A14.12,14.12,0,0,1,483.14,238V454.19A26.21,26.21,0,0,1,456.93,480.41Z" transform="translate(0 -34.93)"/><path class="cls-13" d="M437.3,662.45h75.82a6.32,6.32,0,0,1,6.32,6.32v14a6.32,6.32,0,0,1-6.32,6.32h-89.8a6.32,6.32,0,0,1-6.32-6.32v0a20.3,20.3,0,0,1,20.3-20.3Z"/><path class="cls-13" d="M662.88,694.16h89.8a6.32,6.32,0,0,1,6.32,6.32v14a6.32,6.32,0,0,1-6.32,6.32H676.86a20.3,20.3,0,0,1-20.3-20.3v0a6.32,6.32,0,0,1,6.32-6.32Z" transform="translate(1415.56 1380) rotate(180)"/><path class="cls-14" d="M681.57,35.16H573.88a32.67,32.67,0,0,0-32.67,32.67v2l133.9-5.65Z" transform="translate(0 -34.93)"/><path class="cls-15" d="M604.13,208.58a223.7,223.7,0,0,1,85.5-7.26" transform="translate(0 -34.93)"/></g><rect class="cls-16" y="317.07" width="1200" height="258"/><rect class="cls-17" x="846" y="317.07" width="354" height="258"/><ellipse class="cls-3" cx="651" cy="571.57" rx="93" ry="125.5"/><ellipse class="cls-3" cx="132" cy="549.48" rx="86" ry="116.05"/><ellipse class="cls-18" cx="648.34" cy="571.6" rx="49.3" ry="66.53"/><ellipse class="cls-18" cx="129.17" cy="551.19" rx="39.83" ry="53.75"/><ellipse class="cls-19" cx="948" cy="458.57" rx="46" ry="67.5"/><ellipse class="cls-19" cx="1120" cy="456.57" rx="46" ry="67.5"/><rect class="cls-20" x="616" y="239.07" width="313" height="78"/><rect class="cls-21" x="288" y="153.07" width="56" height="164"/><line class="cls-22" x1="542" y1="389.07" x2="300" y2="389.07"/><line class="cls-22" x1="514" y1="471.07" x2="276" y2="471.07"/></g></g></svg>