<svg xmlns="http://www.w3.org/2000/svg" viewBox="0 0 803.37 689.07"><defs><style>.cls-1{fill:#2f4459;}.cls-2{fill:#648dbf;}.cls-3{fill:#83b6ff;}.cls-4{fill:#9e9c92;}.cls-5{fill:#d3d1c1;}.cls-6{fill:#c1bfb4;}.cls-7{fill:#fffceb;}.cls-8{fill:#42413e;}.cls-9{fill:#0b1014;}.cls-10{fill:#44433f;}.cls-11,.cls-13{fill:none;stroke-miterlimit:10;}.cls-11{stroke:#31485b;stroke-linecap:round;stroke-width:6px;}.cls-12{fill:#383831;}.cls-13{stroke:#383831;stroke-width:9px;}</style></defs><title>catAsset 14</title><g id="Layer_2" data-name="Layer 2"><g id="Layer_1-2" data-name="Layer 1"><rect class="cls-1" x="54.85" y="473.71" width="235.53" height="43.56"/><polygon class="cls-1" points="116.15 502.74 54.85 502.74 54.85 662.45 102.44 662.45 116.15 502.74"/><polygon class="cls-1" points="289.57 502.74 228.27 502.74 245.21 660.03 289.57 662.45 289.57 502.74"/><path class="cls-2" d="M294.81,445.48h0A26.21,26.21,0,0,0,321,419.26V226.08a37.1,37.1,0,0,0-37.1-37.1h-1.21a14.12,14.12,0,0,0-14.12,14.12V419.26A26.21,26.21,0,0,0,294.81,445.48Z"/><path class="cls-3" d="M300.46,445.48h0a26.21,26.21,0,0,0,26.21-26.21V226.08a37.1,37.1,0,0,0-37.1-37.1h-1.21a14.12,14.12,0,0,0-14.12,14.12V419.26A26.21,26.21,0,0,0,300.46,445.48Z"/><rect class="cls-4" x="39.52" y="170.42" width="262.15" height="315.38" rx="33.86" ry="33.86"/><rect class="cls-5" x="61.3" y="181.72" width="237.95" height="286.34" rx="30.74" ry="30.74"/><ellipse class="cls-2" cx="198.83" cy="126.46" rx="98.81" ry="126.23"/><ellipse class="cls-3" cx="192.38" cy="126.23" rx="98.81" ry="126.23"/><ellipse class="cls-6" cx="277.47" cy="74.03" rx="35.49" ry="22.99"/><ellipse class="cls-7" cx="276.26" cy="74.03" rx="32.67" ry="22.99"/><circle class="cls-8" cx="280.7" cy="73.63" r="10.49"/><ellipse class="cls-2" cx="252.51" cy="100.34" rx="38.72" ry="20.46" transform="translate(-18.26 122.94) rotate(-26.44)"/><ellipse class="cls-3" cx="249.24" cy="104.28" rx="38.72" ry="18.55" transform="translate(-20.36 121.9) rotate(-26.44)"/><circle class="cls-2" cx="233.92" cy="103.48" r="4.03"/><circle class="cls-2" cx="258.11" cy="110.73" r="4.03"/><path class="cls-2" d="M93.57,119.61c.2,69.09,51,125,113.73,125s113.53-55.94,113.73-125Z"/><ellipse class="cls-6" cx="198.42" cy="74.03" rx="35.49" ry="22.99"/><ellipse class="cls-7" cx="198.42" cy="74.03" rx="33.07" ry="22.99"/><path class="cls-2" d="M312.52,70.4c-2.69-11-17.35-19.36-35-19.36s-32.36,8.39-35,19.36Z"/><circle class="cls-8" cx="200.04" cy="73.63" r="10.49"/><path class="cls-2" d="M233.47,68.79c-2.69-11-17.35-19.36-35-19.36s-32.36,8.39-35,19.36Z"/><path class="cls-2" d="M45.57,445.48h0a26.21,26.21,0,0,1-26.21-26.21V226.08A37.1,37.1,0,0,1,56.46,189h1.21a14.12,14.12,0,0,1,14.12,14.12V419.26A26.21,26.21,0,0,1,45.57,445.48Z"/><path class="cls-3" d="M39.93,445.48h0a26.21,26.21,0,0,1-26.21-26.21V226.08A37.1,37.1,0,0,1,50.82,189H52a14.12,14.12,0,0,1,14.12,14.12V419.26A26.21,26.21,0,0,1,39.93,445.48Z"/><path class="cls-9" d="M20.3,662.45H96.12a6.32,6.32,0,0,1,6.32,6.32v14a6.32,6.32,0,0,1-6.32,6.32H6.32A6.32,6.32,0,0,1,0,682.75v0a20.3,20.3,0,0,1,20.3-20.3Z"/><path class="cls-9" d="M245.88,659.23h89.8a6.32,6.32,0,0,1,6.32,6.32v14a6.32,6.32,0,0,1-6.32,6.32H259.86a20.3,20.3,0,0,1-20.3-20.3v0a6.32,6.32,0,0,1,6.32-6.32Z" transform="translate(581.56 1345.07) rotate(-180)"/><path class="cls-10" d="M264.57.23H156.88A32.67,32.67,0,0,0,124.22,32.9v2l133.9-5.65Z"/><path class="cls-11" d="M187.13,173.65a223.7,223.7,0,0,1,85.5-7.26"/><rect class="cls-12" x="485" y="599.07" width="239.49" height="87"/><polygon class="cls-12" points="517 462.07 499 462.07 485 599.07 517 599.07 517 462.07"/><polygon class="cls-12" points="546 462.07 528 462.07 514 599.07 546 599.07 546 462.07"/><polygon class="cls-12" points="724.49 462.07 711.39 462.07 701.2 599.07 724.49 599.07 724.49 462.07"/><polygon class="cls-12" points="701 462.07 687.9 462.07 677.71 599.07 701 599.07 701 462.07"/><path class="cls-13" d="M485,686.07c0-100-34-181-76-181"/><rect class="cls-12" x="723.04" y="619.07" width="58.96" height="67"/><polygon class="cls-12" points="803.37 671.19 780.63 658.07 780.63 684.32 803.37 671.19"/><polygon class="cls-12" points="803.37 652.19 780.63 639.07 780.63 665.32 803.37 652.19"/></g></g></svg>