<svg xmlns="http://www.w3.org/2000/svg" xmlns:xlink="http://www.w3.org/1999/xlink" viewBox="0 0 1029 915.18"><defs><style>.cls-1,.cls-11{fill:none;}.cls-2{clip-path:url(#clip-path);}.cls-3{fill:#2f4459;}.cls-4{fill:#648dbf;}.cls-5{fill:#83b6ff;}.cls-6{fill:#9e9c92;}.cls-7{fill:#d3d1c1;}.cls-8{fill:#c1bfb4;}.cls-9{fill:#fffceb;}.cls-10{fill:#42413e;}.cls-11{stroke:#31485b;stroke-linecap:round;stroke-miterlimit:10;stroke-width:6px;}.cls-12{fill:#3d7255;}.cls-13{fill:#44433f;}.cls-14{fill:#5e594c;}.cls-15{fill:#665e3a;}.cls-16{fill:#847a4a;}.cls-17{fill:#fff;}.cls-18{fill:#2c513c;}</style><clipPath id="clip-path" transform="translate(0 -203.15)"><rect class="cls-1" x="24" width="954" height="789"/></clipPath></defs><title>clubAsset 10</title><g id="Layer_2" data-name="Layer 2"><g id="Layer_1-2" data-name="Layer 1"><g class="cls-2"><rect class="cls-3" x="182.66" y="654.43" width="325.38" height="60.17"/><polygon class="cls-3" points="267.35 694.54 182.66 694.54 182.66 915.18 248.41 915.18 267.35 694.54"/><polygon class="cls-3" points="506.93 694.54 422.24 694.54 445.64 911.84 506.93 915.18 506.93 694.54"/><path class="cls-4" d="M793.11,325.53h0a36.22,36.22,0,0,0-49.53-13L513,446.9A51.26,51.26,0,0,0,494.55,517l.84,1.44a19.5,19.5,0,0,0,26.67,7l258-150.41A36.22,36.22,0,0,0,793.11,325.53Z" transform="translate(0 -203.15)"/><path class="cls-5" d="M789.18,318.79h0a36.22,36.22,0,0,0-49.53-13L509.09,440.16a51.26,51.26,0,0,0-18.47,70.1l.84,1.44a19.5,19.5,0,0,0,26.67,7l258-150.41A36.22,36.22,0,0,0,789.18,318.79Z" transform="translate(0 -203.15)"/><rect class="cls-6" x="161.49" y="235.44" width="362.16" height="435.7" rx="46.78" ry="46.78"/><rect class="cls-7" x="191.58" y="251.04" width="328.73" height="395.59" rx="42.47" ry="42.47"/><ellipse class="cls-4" cx="381.57" cy="174.71" rx="136.5" ry="174.39"/><ellipse class="cls-5" cx="372.66" cy="174.39" rx="136.5" ry="174.39"/><ellipse class="cls-8" cx="490.22" cy="102.28" rx="49.03" ry="31.76"/><ellipse class="cls-9" cx="488.55" cy="102.28" rx="45.13" ry="31.76"/><circle class="cls-10" cx="494.68" cy="101.72" r="14.49"/><ellipse class="cls-4" cx="455.73" cy="341.77" rx="53.49" ry="28.26" transform="translate(-104.51 35.56) rotate(-26.44)"/><ellipse class="cls-5" cx="451.22" cy="347.21" rx="53.49" ry="25.63" transform="translate(-107.41 34.12) rotate(-26.44)"/><circle class="cls-4" cx="430.04" cy="142.95" r="5.57"/><circle class="cls-4" cx="463.47" cy="152.98" r="5.57"/><path class="cls-4" d="M236.15,368.38c.27,95.44,70.51,172.72,157.12,172.72s156.85-77.28,157.12-172.72Z" transform="translate(0 -203.15)"/><ellipse class="cls-8" cx="381.01" cy="102.28" rx="49.03" ry="31.76"/><ellipse class="cls-9" cx="381.01" cy="102.28" rx="45.69" ry="31.76"/><path class="cls-4" d="M538.63,300.41c-3.71-15.16-24-26.74-48.42-26.74s-44.7,11.59-48.42,26.74Z" transform="translate(0 -203.15)"/><path class="cls-11" d="M365.41,443a309,309,0,0,1,118.12-10" transform="translate(0 -203.15)"/><circle class="cls-10" cx="383.24" cy="101.72" r="14.49"/><rect class="cls-12" x="496" y="417" width="19" height="101" transform="translate(-166.03 112.24) rotate(-30)"/><path class="cls-4" d="M429.43,298.18c-3.71-15.16-24-26.74-48.42-26.74S336.31,283,332.6,298.18Z" transform="translate(0 -203.15)"/><path class="cls-4" d="M510.71,470.11h0a36.22,36.22,0,0,1-30.71,41L215.81,548.95a51.26,51.26,0,0,1-58-43.47l-.24-1.65a19.5,19.5,0,0,1,16.54-22.07l295.62-42.36A36.22,36.22,0,0,1,510.71,470.11Z" transform="translate(0 -203.15)"/><path class="cls-5" d="M511.81,477.83h0a36.22,36.22,0,0,1-30.71,41L216.92,556.67a51.26,51.26,0,0,1-58-43.47l-.24-1.65a19.5,19.5,0,0,1,16.54-22.07l295.62-42.36A36.22,36.22,0,0,1,511.81,477.83Z" transform="translate(0 -203.15)"/><path class="cls-13" d="M472.39,203.46H323.63a45.13,45.13,0,0,0-45.13,45.13v2.79l185-7.8Z" transform="translate(0 -203.15)"/></g><polygon class="cls-14" points="1029 528.85 0 756.85 83 570.85 775 452.85 1029 528.85"/><rect class="cls-15" x="569" y="411.85" width="70" height="124"/><rect class="cls-15" x="588" y="328.85" width="31" height="124"/><rect class="cls-16" x="578" y="411.85" width="70" height="124"/><rect class="cls-16" x="597" y="328.85" width="31" height="124"/><rect class="cls-17" x="373.97" y="780.34" width="113.39" height="11.05" transform="translate(450.63 -313.19) rotate(30)"/><rect class="cls-17" x="415" y="770" width="128" height="11" transform="translate(451.92 -338.75) rotate(30)"/><rect class="cls-17" x="454.44" y="745.59" width="89.44" height="7.56" transform="translate(441.56 -352.33) rotate(30)"/><polygon class="cls-12" points="780 135.85 723 135.85 731 5.85 790 8.85 780 135.85"/><ellipse class="cls-18" cx="753" cy="73.35" rx="20" ry="23.5"/></g></g></svg>