<svg xmlns="http://www.w3.org/2000/svg" viewBox="0 0 894.74 788.82"><defs><style>.cls-1{fill:#2f4459;}.cls-2{fill:#648dbf;}.cls-3{fill:#83b6ff;}.cls-4{fill:#9e9c92;}.cls-5{fill:#d3d1c1;}.cls-6{fill:#383831;}.cls-7{fill:#b22f2d;}.cls-8{fill:#c1bfb4;}.cls-9{fill:#fffceb;}.cls-10{fill:#42413e;}.cls-11{fill:#0b1014;}.cls-12{fill:#44433f;}.cls-13{fill:none;stroke:#31485b;stroke-linecap:round;stroke-width:6px;}.cls-13,.cls-14{stroke-miterlimit:10;}.cls-14{fill:#1f233d;stroke:#797c49;stroke-width:9px;}.cls-15{fill:#adadad;}.cls-16{fill:#797c49;}.cls-17{fill:#f7f794;}</style></defs><title>doctorAsset 16</title><g id="Layer_2" data-name="Layer 2"><g id="Layer_1-2" data-name="Layer 1"><rect class="cls-1" x="159.09" y="727.14" width="235.53" height="43.56"/><polygon class="cls-1" points="200.88 769.11 192.97 708.32 34.6 728.95 40.74 776.14 200.88 769.11"/><polygon class="cls-1" points="387.87 708.52 381.59 769.5 539.78 768.77 546.74 724.89 387.87 708.52"/><path class="cls-2" d="M487.8,378.24h0a26.21,26.21,0,0,0-37,1.94L321.5,523.73a37.1,37.1,0,0,0,2.74,52.4l.9.81a14.12,14.12,0,0,0,19.94-1L489.74,415.26A26.21,26.21,0,0,0,487.8,378.24Z"/><path class="cls-3" d="M483.6,374.46h0a26.21,26.21,0,0,0-37,1.94L317.31,520a37.1,37.1,0,0,0,2.74,52.4l.9.81a14.12,14.12,0,0,0,19.94-1L485.54,411.49A26.21,26.21,0,0,0,483.6,374.46Z"/><rect class="cls-4" x="143.76" y="423.85" width="262.15" height="315.38" rx="33.86" ry="33.86"/><rect class="cls-5" x="165.54" y="435.15" width="237.95" height="286.34" rx="30.74" ry="30.74"/><ellipse class="cls-2" cx="303.07" cy="379.89" rx="98.81" ry="126.23"/><rect class="cls-6" x="410.79" y="347.25" width="68.66" height="108.84" transform="translate(-124.18 213.59) rotate(-23.78)"/><rect class="cls-7" x="417.42" y="357.97" width="55.59" height="87.82" transform="translate(-124.25 213.65) rotate(-23.78)"/><ellipse class="cls-3" cx="296.62" cy="379.66" rx="98.81" ry="126.23"/><ellipse class="cls-8" cx="381.71" cy="327.46" rx="35.49" ry="22.99"/><ellipse class="cls-9" cx="380.5" cy="327.46" rx="32.67" ry="22.99"/><circle class="cls-10" cx="384.94" cy="327.06" r="10.49"/><ellipse class="cls-2" cx="356.75" cy="353.77" rx="38.72" ry="20.46" transform="translate(-120.21 195.88) rotate(-26.44)"/><ellipse class="cls-3" cx="353.48" cy="357.71" rx="38.72" ry="18.55" transform="translate(-122.31 194.84) rotate(-26.44)"/><circle class="cls-2" cx="338.16" cy="356.91" r="4.03"/><circle class="cls-2" cx="362.35" cy="364.17" r="4.03"/><path class="cls-2" d="M197.81,373c.2,69.09,51,125,113.73,125s113.53-55.94,113.73-125Z"/><ellipse class="cls-8" cx="302.67" cy="327.46" rx="35.49" ry="22.99"/><ellipse class="cls-9" cx="302.67" cy="327.46" rx="33.07" ry="22.99"/><path class="cls-2" d="M416.76,323.83c-2.69-11-17.35-19.36-35-19.36s-32.36,8.39-35,19.36Z"/><circle class="cls-10" cx="304.28" cy="327.06" r="10.49"/><path class="cls-2" d="M337.71,322.22c-2.69-11-17.35-19.36-35-19.36s-32.36,8.39-35,19.36Z"/><path class="cls-11" d="M-7.46,723.88H68.36a6.32,6.32,0,0,1,6.32,6.32v14a6.32,6.32,0,0,1-6.32,6.32h-89.8a6.32,6.32,0,0,1-6.32-6.32v0a20.3,20.3,0,0,1,20.3-20.3Z" transform="translate(735.44 544.63) rotate(76.69)"/><path class="cls-11" d="M518.12,710.66h89.8a6.32,6.32,0,0,1,6.32,6.32v14a6.32,6.32,0,0,1-6.32,6.32H532.1A20.3,20.3,0,0,1,511.8,717v0A6.32,6.32,0,0,1,518.12,710.66Z" transform="translate(1381.7 310.58) rotate(101.08)"/><path class="cls-12" d="M368.81,253.66H261.13a32.67,32.67,0,0,0-32.67,32.67v2l133.9-5.65Z"/><path class="cls-13" d="M291.37,427.08a223.7,223.7,0,0,1,85.5-7.26"/><path class="cls-2" d="M278.12,261.88h0a26.21,26.21,0,0,1,9.77,35.76L192.12,465.41a37.1,37.1,0,0,1-50.62,13.83l-1.05-.6a14.12,14.12,0,0,1-5.26-19.26L242.36,271.65A26.21,26.21,0,0,1,278.12,261.88Z"/><path class="cls-3" d="M283,264.67h0a26.21,26.21,0,0,1,9.77,35.76L197,468.21A37.1,37.1,0,0,1,146.41,482l-1.05-.6a14.12,14.12,0,0,1-5.26-19.26L247.26,274.45A26.21,26.21,0,0,1,283,264.67Z"/><rect class="cls-14" x="517.24" y="4.5" width="373" height="397"/><circle class="cls-15" cx="663.74" cy="141" r="98"/><rect class="cls-16" x="683.24" y="4.5" width="20" height="397"/><rect class="cls-16" x="517.24" y="192.5" width="373" height="18"/><rect class="cls-17" x="799.24" y="74.5" width="14" height="14" transform="translate(293.77 -546.23) rotate(45)"/><rect class="cls-17" x="839.24" y="147.5" width="14" height="14" transform="translate(357.11 -553.13) rotate(45)"/><rect class="cls-17" x="764.24" y="268.5" width="14" height="14" transform="translate(420.7 -464.66) rotate(45)"/><rect class="cls-17" x="806.24" y="346.5" width="14" height="14" transform="translate(488.16 -471.51) rotate(45)"/><rect class="cls-17" x="595.24" y="314.5" width="14" height="14" transform="translate(403.73 -331.68) rotate(45)"/></g></g></svg>