<svg xmlns="http://www.w3.org/2000/svg" viewBox="0 0 1229.85 689.07"><defs><style>.cls-1{fill:#4a4c3b;}.cls-2{fill:#1a281a;}.cls-3{fill:#558458;}.cls-4{fill:#314c32;}.cls-5{fill:#8ca58b;}.cls-6,.cls-7{fill:#d8e2af;}.cls-7{opacity:0.55;}.cls-8{fill:#60604c;}.cls-20,.cls-9{fill:none;stroke-miterlimit:10;}.cls-9{stroke:#004924;}.cls-10{fill:#2f4459;}.cls-11{fill:#648dbf;}.cls-12{fill:#83b6ff;}.cls-13{fill:#9e9c92;}.cls-14{fill:#d3d1c1;}.cls-15{fill:#c1bfb4;}.cls-16{fill:#fffceb;}.cls-17{fill:#42413e;}.cls-18{fill:#0b1014;}.cls-19{fill:#44433f;}.cls-20{stroke:#31485b;stroke-linecap:round;stroke-width:6px;}</style></defs><title>fenderAsset 4</title><g id="Layer_2" data-name="Layer 2"><g id="Layer_1-2" data-name="Layer 1"><rect class="cls-1" x="344" y="130.07" width="285" height="164"/><ellipse class="cls-2" cx="929" cy="535.08" rx="83" ry="112.01"/><ellipse class="cls-2" cx="359" cy="503.11" rx="83" ry="112.01"/><rect class="cls-3" y="294.07" width="1200" height="258"/><path class="cls-4" d="M817,569.9c40-5.83,80-19.83,120.78-17.83h8c27.26-1,45.26,19,69.26,28a9.72,9.72,0,0,0,9-1c12-10,18-30,36.76-27h65.91c24.34,0,53.34,7,70.34-4,14-10,40-29,31-52-6-14-25-21-27.63-38.23a68.79,68.79,0,0,1-.37-8.55c-1-28.22,10-54.22,21-79.22,2-7,6-14,2-20-9-13-27-20-23-37.81V294.07h-31.88a78.59,78.59,0,0,1-10.23-.49C1143,289.07,1143,273.07,1134,262.07c-4-5-11-3-16-1-21,9-36,29-58.83,32.63a61.88,61.88,0,0,1-7.72.37c-23.45,0-30.45-27-49.45-36-3-1-6,1-9,2-15,10-21,31-39.12,33.93-2.74.06-5.46.06-8.23-.07-4.65-.85-10.65.15-15.65-2.85-23-14-57-40-76-5-1,2-7,5-8,7-1,24-30,22-42,39a6.38,6.38,0,0,0,0,6c10,21,36,30,41.86,54.45.13,2.45.14,4.9.14,7.35v89.8c1,4.39,0,9.39-1,13.39-6,23-26,39-28.73,62.34A22.51,22.51,0,0,0,817,569.9Z"/><ellipse class="cls-2" cx="651" cy="548.57" rx="93" ry="125.5"/><ellipse class="cls-2" cx="132" cy="526.48" rx="86" ry="116.05"/><ellipse class="cls-5" cx="648.34" cy="548.6" rx="49.3" ry="66.53"/><ellipse class="cls-5" cx="129.17" cy="528.19" rx="39.83" ry="53.75"/><path class="cls-6" d="M994,435.57c0,37.28-20.59,67.5-46,67.5s-46-30.22-46-67.5,20.59-9.5,46-9.5S994,398.29,994,435.57Z"/><path class="cls-6" d="M1120,438.07c0,37.28,25.41,39,0,39s-46-30.22-46-67.5,20.59-67.5,46-67.5S1120,400.79,1120,438.07Z"/><rect class="cls-7" x="616" y="216.07" width="313" height="78"/><rect class="cls-8" x="288" y="130.07" width="56" height="164"/><line class="cls-9" x1="542" y1="366.07" x2="300" y2="366.07"/><line class="cls-9" x1="514" y1="448.07" x2="276" y2="448.07"/><rect class="cls-10" x="287.85" y="473.71" width="235.53" height="43.56"/><polygon class="cls-10" points="349.15 502.74 287.85 502.74 287.85 662.45 335.44 662.45 349.15 502.74"/><polygon class="cls-10" points="522.57 502.74 461.27 502.74 478.21 660.03 522.57 662.45 522.57 502.74"/><path class="cls-11" d="M527.81,445.48h0A26.21,26.21,0,0,0,554,419.26V226.08a37.1,37.1,0,0,0-37.1-37.1h-1.21a14.12,14.12,0,0,0-14.12,14.12V419.26A26.21,26.21,0,0,0,527.81,445.48Z"/><path class="cls-12" d="M533.46,445.48h0a26.21,26.21,0,0,0,26.21-26.21V226.08a37.1,37.1,0,0,0-37.1-37.1h-1.21a14.12,14.12,0,0,0-14.12,14.12V419.26A26.21,26.21,0,0,0,533.46,445.48Z"/><rect class="cls-13" x="272.52" y="170.42" width="262.15" height="315.38" rx="33.86" ry="33.86"/><rect class="cls-14" x="294.3" y="181.72" width="237.95" height="286.34" rx="30.74" ry="30.74"/><ellipse class="cls-11" cx="431.83" cy="126.46" rx="98.81" ry="126.23"/><ellipse class="cls-12" cx="425.37" cy="126.23" rx="98.81" ry="126.23"/><ellipse class="cls-15" cx="510.47" cy="74.03" rx="35.49" ry="22.99"/><ellipse class="cls-16" cx="509.26" cy="74.03" rx="32.67" ry="22.99"/><circle class="cls-17" cx="513.7" cy="73.63" r="10.49"/><ellipse class="cls-11" cx="485.51" cy="100.34" rx="38.72" ry="20.46" transform="translate(6.11 226.7) rotate(-26.44)"/><ellipse class="cls-12" cx="482.24" cy="104.28" rx="38.72" ry="18.55" transform="translate(4.02 225.66) rotate(-26.44)"/><circle class="cls-11" cx="466.92" cy="103.48" r="4.03"/><circle class="cls-11" cx="491.11" cy="110.73" r="4.03"/><path class="cls-11" d="M326.57,119.61c.2,69.09,51,125,113.73,125s113.53-55.94,113.73-125Z"/><ellipse class="cls-15" cx="431.42" cy="74.03" rx="35.49" ry="22.99"/><ellipse class="cls-16" cx="431.42" cy="74.03" rx="33.07" ry="22.99"/><path class="cls-11" d="M545.52,70.4c-2.69-11-17.35-19.36-35-19.36s-32.36,8.39-35,19.36Z"/><circle class="cls-17" cx="433.04" cy="73.63" r="10.49"/><path class="cls-11" d="M466.47,68.79c-2.69-11-17.35-19.36-35-19.36s-32.36,8.39-35,19.36Z"/><path class="cls-11" d="M278.57,445.48h0a26.21,26.21,0,0,1-26.21-26.21V226.08a37.1,37.1,0,0,1,37.1-37.1h1.21a14.12,14.12,0,0,1,14.12,14.12V419.26A26.21,26.21,0,0,1,278.57,445.48Z"/><path class="cls-12" d="M272.93,445.48h0a26.21,26.21,0,0,1-26.21-26.21V226.08a37.1,37.1,0,0,1,37.1-37.1H285a14.12,14.12,0,0,1,14.12,14.12V419.26A26.21,26.21,0,0,1,272.93,445.48Z"/><path class="cls-18" d="M253.3,662.45h75.82a6.32,6.32,0,0,1,6.32,6.32v14a6.32,6.32,0,0,1-6.32,6.32h-89.8a6.32,6.32,0,0,1-6.32-6.32v0A20.3,20.3,0,0,1,253.3,662.45Z"/><path class="cls-18" d="M478.88,659.23h89.8a6.32,6.32,0,0,1,6.32,6.32v14a6.32,6.32,0,0,1-6.32,6.32H492.86a20.3,20.3,0,0,1-20.3-20.3v0a6.32,6.32,0,0,1,6.32-6.32Z" transform="translate(1047.56 1345.07) rotate(-180)"/><path class="cls-19" d="M497.57.23H389.88A32.67,32.67,0,0,0,357.22,32.9v2l133.9-5.65Z"/><path class="cls-20" d="M420.13,173.65a223.7,223.7,0,0,1,85.5-7.26"/></g></g></svg>