<svg xmlns="http://www.w3.org/2000/svg" viewBox="0 0 462.06 689.07"><defs><style>.cls-1{fill:#2f4459;}.cls-2{fill:#648dbf;}.cls-3{fill:#83b6ff;}.cls-4{fill:#9e9c92;}.cls-5{fill:#d3d1c1;}.cls-6{fill:#c1bfb4;}.cls-7{fill:#fffceb;}.cls-8{fill:#42413e;}.cls-9{fill:#4f4f4f;}.cls-10{fill:#0b1014;}.cls-11{fill:#44433f;}.cls-12{fill:none;stroke:#31485b;stroke-linecap:round;stroke-miterlimit:10;stroke-width:6px;}.cls-13{fill:#727272;}.cls-14{fill:#42704b;}.cls-15{fill:#2e4c33;}.cls-16{fill:#757c49;}.cls-17{fill:#565935;}.cls-18{fill:#989998;}.cls-19{fill:#7f7f7f;}</style></defs><title>firedAsset 8</title><g id="Layer_2" data-name="Layer 2"><g id="Layer_1-2" data-name="Layer 1"><rect class="cls-1" x="54.85" y="473.71" width="235.53" height="43.56"/><polygon class="cls-1" points="116.15 502.74 54.85 502.74 54.85 662.45 102.44 662.45 116.15 502.74"/><polygon class="cls-1" points="289.57 502.74 228.27 502.74 245.21 660.03 289.57 662.45 289.57 502.74"/><path class="cls-2" d="M420.1,386.77h0a26.21,26.21,0,0,0,1.65-37L291.39,207.18A37.1,37.1,0,0,0,239,204.83l-.89.82a14.12,14.12,0,0,0-.89,19.94L383.07,385.12A26.21,26.21,0,0,0,420.1,386.77Z"/><path class="cls-3" d="M424.27,383h0a26.21,26.21,0,0,0,1.65-37L295.56,203.37A37.1,37.1,0,0,0,243.14,201l-.89.82a14.12,14.12,0,0,0-.89,19.94L387.23,381.31A26.21,26.21,0,0,0,424.27,383Z"/><rect class="cls-4" x="39.52" y="170.42" width="262.15" height="315.38" rx="33.86" ry="33.86"/><rect class="cls-5" x="61.3" y="181.72" width="237.95" height="286.34" rx="30.74" ry="30.74"/><ellipse class="cls-2" cx="198.83" cy="126.46" rx="98.81" ry="126.23"/><ellipse class="cls-3" cx="192.38" cy="126.23" rx="98.81" ry="126.23"/><ellipse class="cls-6" cx="277.47" cy="74.03" rx="35.49" ry="22.99"/><ellipse class="cls-7" cx="276.26" cy="74.03" rx="32.67" ry="22.99"/><circle class="cls-8" cx="280.7" cy="73.63" r="10.49"/><ellipse class="cls-2" cx="252.51" cy="100.34" rx="38.72" ry="20.46" transform="translate(-18.26 122.94) rotate(-26.44)"/><ellipse class="cls-3" cx="249.24" cy="104.28" rx="38.72" ry="18.55" transform="translate(-20.36 121.9) rotate(-26.44)"/><circle class="cls-2" cx="233.92" cy="103.48" r="4.03"/><circle class="cls-2" cx="258.11" cy="110.73" r="4.03"/><path class="cls-2" d="M93.57,119.61c.2,69.09,51,125,113.73,125s113.53-55.94,113.73-125Z"/><ellipse class="cls-6" cx="198.42" cy="74.03" rx="35.49" ry="22.99"/><ellipse class="cls-7" cx="198.42" cy="74.03" rx="33.07" ry="22.99"/><path class="cls-2" d="M312.52,70.4c-2.69-11-17.35-19.36-35-19.36s-32.36,8.39-35,19.36Z"/><circle class="cls-8" cx="200.04" cy="73.63" r="10.49"/><path class="cls-2" d="M233.47,68.79c-2.69-11-17.35-19.36-35-19.36s-32.36,8.39-35,19.36Z"/><polygon class="cls-9" points="325 486.07 173 486.07 173 288.07 325 258.07 325 486.07"/><path class="cls-10" d="M20.3,662.45H96.12a6.32,6.32,0,0,1,6.32,6.32v14a6.32,6.32,0,0,1-6.32,6.32H6.32A6.32,6.32,0,0,1,0,682.75v0a20.3,20.3,0,0,1,20.3-20.3Z"/><path class="cls-10" d="M245.88,659.23h89.8a6.32,6.32,0,0,1,6.32,6.32v14a6.32,6.32,0,0,1-6.32,6.32H259.86a20.3,20.3,0,0,1-20.3-20.3v0a6.32,6.32,0,0,1,6.32-6.32Z" transform="translate(581.56 1345.07) rotate(-180)"/><path class="cls-11" d="M264.57.23H156.88A32.67,32.67,0,0,0,124.22,32.9v2l133.9-5.65Z"/><path class="cls-12" d="M187.13,173.65a223.7,223.7,0,0,1,85.5-7.26"/><polygon class="cls-13" points="406 447.07 325 456.07 325 258.07 422 269.07 406 447.07"/><ellipse class="cls-14" cx="331.73" cy="274.96" rx="10.5" ry="36" transform="translate(-98.51 251.61) rotate(-36.55)"/><ellipse class="cls-14" cx="339.69" cy="256.62" rx="10.5" ry="36" transform="translate(-86.02 252.74) rotate(-36.55)"/><ellipse class="cls-14" cx="347.65" cy="238.27" rx="10.5" ry="36" transform="translate(-73.53 253.87) rotate(-36.55)"/><ellipse class="cls-14" cx="355.61" cy="219.92" rx="10.5" ry="36" transform="translate(-61.04 255.01) rotate(-36.55)"/><ellipse class="cls-14" cx="363.57" cy="201.57" rx="10.5" ry="36" transform="translate(-48.54 256.14) rotate(-36.55)"/><ellipse class="cls-14" cx="371.53" cy="183.23" rx="10.5" ry="36" transform="translate(-36.05 257.27) rotate(-36.55)"/><ellipse class="cls-14" cx="379.49" cy="164.88" rx="10.5" ry="36" transform="translate(-23.56 258.4) rotate(-36.55)"/><ellipse class="cls-15" cx="378.51" cy="295.26" rx="36" ry="10.5" transform="translate(-31.2 45.09) rotate(-6.55)"/><ellipse class="cls-15" cx="386.47" cy="276.91" rx="36" ry="10.5" transform="translate(-29.06 45.88) rotate(-6.55)"/><ellipse class="cls-15" cx="394.43" cy="258.57" rx="36" ry="10.5" transform="translate(-26.91 46.66) rotate(-6.55)"/><ellipse class="cls-15" cx="402.39" cy="240.22" rx="36" ry="10.5" transform="translate(-24.77 47.45) rotate(-6.55)"/><ellipse class="cls-15" cx="410.35" cy="221.87" rx="36" ry="10.5" transform="translate(-22.62 48.24) rotate(-6.55)"/><ellipse class="cls-15" cx="418.31" cy="203.52" rx="36" ry="10.5" transform="translate(-20.48 49.03) rotate(-6.55)"/><ellipse class="cls-15" cx="426.27" cy="185.17" rx="36" ry="10.5" transform="translate(-18.34 49.82) rotate(-6.55)"/><path class="cls-16" d="M298.12,200a150.13,150.13,0,0,0-11,23.1c-16.85,44.7-10.2,88.6,14.87,98s59-19.13,75.9-63.83a150.13,150.13,0,0,0,7-24.62Z"/><ellipse class="cls-17" cx="341.49" cy="216.35" rx="10" ry="47.5" transform="translate(18.58 459.56) rotate(-69.34)"/><polygon class="cls-18" points="406 447.07 325 486.07 325 288.07 422 269.07 406 447.07"/><rect class="cls-19" x="173" y="288.07" width="152" height="198"/><path class="cls-2" d="M203.5,397.88h0a26.21,26.21,0,0,1-37.05-1.2l-132.09-141a37.1,37.1,0,0,1,1.7-52.44l.88-.83a14.12,14.12,0,0,1,20,.65L204.71,360.83A26.21,26.21,0,0,1,203.5,397.88Z"/><path class="cls-3" d="M199.38,401.74h0a26.21,26.21,0,0,1-37.05-1.2l-132.09-141a37.1,37.1,0,0,1,1.7-52.44l.88-.83a14.12,14.12,0,0,1,20,.65L200.59,364.69A26.21,26.21,0,0,1,199.38,401.74Z"/></g></g></svg>