<svg xmlns="http://www.w3.org/2000/svg" viewBox="0 0 903 769.07"><defs><style>.cls-1{fill:#2f4459;}.cls-2{fill:#648dbf;}.cls-3{fill:#83b6ff;}.cls-4{fill:#9e9c92;}.cls-5{fill:#d3d1c1;}.cls-6{fill:#c1bfb4;}.cls-7{fill:#fffceb;}.cls-8{fill:#42413e;}.cls-9{fill:#333230;}.cls-13,.cls-9{stroke:#999;}.cls-12,.cls-13,.cls-9{stroke-miterlimit:10;}.cls-10{fill:#0b1014;}.cls-11{fill:#44433f;}.cls-12,.cls-13{fill:none;}.cls-12{stroke:#31485b;stroke-linecap:round;stroke-width:6px;}</style></defs><title>fishingAsset 7</title><g id="Layer_2" data-name="Layer 2"><g id="Layer_1-2" data-name="Layer 1"><rect class="cls-1" x="54.85" y="473.71" width="235.53" height="43.56"/><polygon class="cls-1" points="116.15 502.74 54.85 502.74 54.85 662.45 102.44 662.45 116.15 502.74"/><polygon class="cls-1" points="289.57 502.74 228.27 502.74 245.21 660.03 289.57 662.45 289.57 502.74"/><path class="cls-2" d="M294.81,445.48h0A26.21,26.21,0,0,0,321,419.26V226.08a37.1,37.1,0,0,0-37.1-37.1h-1.21a14.12,14.12,0,0,0-14.12,14.12V419.26A26.21,26.21,0,0,0,294.81,445.48Z"/><path class="cls-3" d="M300.46,445.48h0a26.21,26.21,0,0,0,26.21-26.21V226.08a37.1,37.1,0,0,0-37.1-37.1h-1.21a14.12,14.12,0,0,0-14.12,14.12V419.26A26.21,26.21,0,0,0,300.46,445.48Z"/><rect class="cls-4" x="39.52" y="170.42" width="262.15" height="315.38" rx="33.86" ry="33.86"/><rect class="cls-5" x="61.3" y="181.72" width="237.95" height="286.34" rx="30.74" ry="30.74"/><ellipse class="cls-2" cx="198.83" cy="126.46" rx="98.81" ry="126.23"/><ellipse class="cls-3" cx="192.38" cy="126.23" rx="98.81" ry="126.23"/><ellipse class="cls-6" cx="277.47" cy="74.03" rx="35.49" ry="22.99"/><ellipse class="cls-7" cx="276.26" cy="74.03" rx="32.67" ry="22.99"/><circle class="cls-8" cx="280.7" cy="73.63" r="10.49"/><ellipse class="cls-2" cx="252.51" cy="100.34" rx="38.72" ry="20.46" transform="translate(-18.26 122.94) rotate(-26.44)"/><ellipse class="cls-3" cx="249.24" cy="104.28" rx="38.72" ry="18.55" transform="translate(-20.36 121.9) rotate(-26.44)"/><circle class="cls-2" cx="233.92" cy="103.48" r="4.03"/><circle class="cls-2" cx="258.11" cy="110.73" r="4.03"/><path class="cls-2" d="M93.57,119.61c.2,69.09,51,125,113.73,125s113.53-55.94,113.73-125Z"/><ellipse class="cls-6" cx="198.42" cy="74.03" rx="35.49" ry="22.99"/><ellipse class="cls-7" cx="198.42" cy="74.03" rx="33.07" ry="22.99"/><path class="cls-2" d="M312.52,70.4c-2.69-11-17.35-19.36-35-19.36s-32.36,8.39-35,19.36Z"/><circle class="cls-8" cx="200.04" cy="73.63" r="10.49"/><polygon class="cls-9" points="619 31.07 165.11 373.87 173.02 387.58 622 38.07 619 31.07"/><path class="cls-2" d="M233.47,68.79c-2.69-11-17.35-19.36-35-19.36s-32.36,8.39-35,19.36Z"/><path class="cls-2" d="M213.47,378.91h0a26.21,26.21,0,0,1-37.07-.4L41.28,240.44A37.1,37.1,0,0,1,41.85,188l.86-.85a14.12,14.12,0,0,1,20,.22l151.19,154.5A26.21,26.21,0,0,1,213.47,378.91Z"/><path class="cls-3" d="M209.43,382.86h0a26.21,26.21,0,0,1-37.07-.4L37.25,244.39a37.1,37.1,0,0,1,.57-52.47l.86-.85a14.12,14.12,0,0,1,20,.22l151.19,154.5A26.21,26.21,0,0,1,209.43,382.86Z"/><path class="cls-10" d="M20.3,662.45H96.12a6.32,6.32,0,0,1,6.32,6.32v14a6.32,6.32,0,0,1-6.32,6.32H6.32A6.32,6.32,0,0,1,0,682.75v0A20.3,20.3,0,0,1,20.3,662.45Z"/><path class="cls-10" d="M245.88,659.23h89.8a6.32,6.32,0,0,1,6.32,6.32v14a6.32,6.32,0,0,1-6.32,6.32H259.86a20.3,20.3,0,0,1-20.3-20.3v0a6.32,6.32,0,0,1,6.32-6.32Z" transform="translate(581.56 1345.07) rotate(-180)"/><path class="cls-11" d="M264.57.23H156.88A32.67,32.67,0,0,0,124.22,32.9v2l133.9-5.65Z"/><path class="cls-12" d="M187.13,173.65a223.7,223.7,0,0,1,85.5-7.26"/><ellipse class="cls-3" cx="630.5" cy="686.07" rx="272.5" ry="83"/><ellipse class="cls-2" cx="622" cy="671.57" rx="18.06" ry="5.5"/><line class="cls-13" x1="622" y1="38.07" x2="622" y2="672.07"/></g></g></svg>