<svg xmlns="http://www.w3.org/2000/svg" viewBox="0 0 1048 966"><defs><style>.cls-1{fill:#c1bd9f;}.cls-2{fill:#6d6b67;}.cls-3{fill:#9e9c92;}.cls-4{fill:#545332;}.cls-5{fill:#d1cf7c;}.cls-6{fill:#fff;}.cls-7{fill:#2f4459;}.cls-8{fill:#648dbf;}.cls-9{fill:#83b6ff;}.cls-10{fill:#d3d1c1;}.cls-11{fill:#c1bfb4;}.cls-12{fill:#fffceb;}.cls-13{fill:#42413e;}.cls-14{fill:#0b1014;}.cls-15{fill:#44433f;}.cls-16{fill:none;stroke:#31485b;stroke-linecap:round;stroke-miterlimit:10;stroke-width:6px;}.cls-17{fill:#9a4ca5;}.cls-18{fill:#aa6b83;}.cls-19{fill:#5c71ad;}.cls-20{fill:#5267a8;}.cls-21{fill:#afafaf;}.cls-22{fill:#8c8c8c;}</style></defs><title>gfAsset 11</title><g id="Layer_2" data-name="Layer 2"><g id="Layer_1-2" data-name="Layer 1"><polygon class="cls-1" points="966 966 222 879 147 0 1048 0 966 966"/><polygon class="cls-2" points="441 210 792 197 792 941 450 906 441 210"/><polygon class="cls-3" points="435 209 786 196 786 940 444 905 435 209"/><circle class="cls-4" cx="728" cy="601" r="33"/><circle class="cls-5" cx="723" cy="602" r="33"/><polygon class="cls-6" points="702 476 501 461.58 501 370.77 702 365 702 476"/><rect class="cls-7" x="54.85" y="675.64" width="235.53" height="43.56"/><polygon class="cls-7" points="116.15 704.67 54.85 704.67 54.85 864.38 102.44 864.38 116.15 704.67"/><polygon class="cls-7" points="289.57 704.67 228.27 704.67 245.21 861.96 289.57 864.38 289.57 704.67"/><path class="cls-8" d="M294.81,647.41h0A26.21,26.21,0,0,0,321,621.19V428a37.1,37.1,0,0,0-37.1-37.1h-1.21A14.12,14.12,0,0,0,268.6,405V621.19A26.21,26.21,0,0,0,294.81,647.41Z"/><path class="cls-9" d="M300.46,647.41h0a26.21,26.21,0,0,0,26.21-26.21V428a37.1,37.1,0,0,0-37.1-37.1h-1.21A14.12,14.12,0,0,0,274.25,405V621.19A26.21,26.21,0,0,0,300.46,647.41Z"/><rect class="cls-3" x="39.52" y="372.35" width="262.15" height="315.38" rx="33.86" ry="33.86"/><rect class="cls-10" x="61.3" y="383.65" width="237.95" height="286.34" rx="30.74" ry="30.74"/><ellipse class="cls-8" cx="198.83" cy="328.39" rx="98.81" ry="126.23"/><ellipse class="cls-9" cx="192.38" cy="328.16" rx="98.81" ry="126.23"/><ellipse class="cls-11" cx="277.47" cy="275.96" rx="35.49" ry="22.99"/><ellipse class="cls-12" cx="276.26" cy="275.96" rx="32.67" ry="22.99"/><circle class="cls-13" cx="280.7" cy="275.56" r="10.49"/><ellipse class="cls-8" cx="252.51" cy="302.27" rx="38.72" ry="20.46" transform="translate(-108.19 144.07) rotate(-26.44)"/><ellipse class="cls-9" cx="249.24" cy="306.21" rx="38.72" ry="18.55" transform="translate(-110.28 143.03) rotate(-26.44)"/><circle class="cls-8" cx="233.92" cy="305.41" r="4.03"/><circle class="cls-8" cx="258.11" cy="312.67" r="4.03"/><path class="cls-8" d="M93.57,321.54c.2,69.09,51,125,113.73,125s113.53-55.94,113.73-125Z"/><ellipse class="cls-11" cx="198.42" cy="275.96" rx="35.49" ry="22.99"/><ellipse class="cls-12" cx="198.42" cy="275.96" rx="33.07" ry="22.99"/><path class="cls-8" d="M312.52,272.33c-2.69-11-17.35-19.36-35-19.36s-32.36,8.39-35,19.36Z"/><circle class="cls-13" cx="200.04" cy="275.56" r="10.49"/><path class="cls-8" d="M233.47,270.72c-2.69-11-17.35-19.36-35-19.36s-32.36,8.39-35,19.36Z"/><path class="cls-14" d="M20.3,864.38H96.12a6.32,6.32,0,0,1,6.32,6.32v14A6.32,6.32,0,0,1,96.12,891H6.32A6.32,6.32,0,0,1,0,884.68v0a20.3,20.3,0,0,1,20.3-20.3Z"/><path class="cls-14" d="M245.88,861.16h89.8a6.32,6.32,0,0,1,6.32,6.32v14a6.32,6.32,0,0,1-6.32,6.32H259.86a20.3,20.3,0,0,1-20.3-20.3v0A6.32,6.32,0,0,1,245.88,861.16Z" transform="translate(581.56 1748.93) rotate(-180)"/><path class="cls-15" d="M264.57,202.16H156.88a32.67,32.67,0,0,0-32.67,32.67v2l133.9-5.65Z"/><path class="cls-16" d="M187.13,375.58a223.7,223.7,0,0,1,85.5-7.26"/><ellipse class="cls-17" cx="268.5" cy="427" rx="23.5" ry="28"/><ellipse class="cls-18" cx="298.5" cy="412" rx="23.5" ry="28"/><ellipse class="cls-19" cx="230.5" cy="425" rx="23.5" ry="28"/><ellipse class="cls-19" cx="298.5" cy="448" rx="23.5" ry="28"/><ellipse class="cls-18" cx="258.5" cy="455" rx="23.5" ry="28"/><ellipse class="cls-18" cx="323.5" cy="476" rx="23.5" ry="28"/><ellipse class="cls-17" cx="312.5" cy="521" rx="23.5" ry="28"/><ellipse class="cls-17" cx="323.5" cy="438" rx="23.5" ry="28"/><ellipse class="cls-20" cx="284.5" cy="489" rx="23.5" ry="28"/><polygon class="cls-21" points="79.14 642.46 201.7 404.26 335.69 565.39 79.14 642.46"/><polygon class="cls-22" points="79.14 642.46 287 506 335.69 565.39 79.14 642.46"/><path class="cls-8" d="M164.92,623.82h0A26.21,26.21,0,0,1,129,614.75l-99-165.86A37.1,37.1,0,0,1,42.77,398l1-.62a14.12,14.12,0,0,1,19.36,4.88L174,587.88A26.21,26.21,0,0,1,164.92,623.82Z"/><path class="cls-9" d="M160.08,626.72h0a26.21,26.21,0,0,1-35.95-9.07l-99-165.86a37.1,37.1,0,0,1,12.83-50.88l1-.62a14.12,14.12,0,0,1,19.36,4.88l110.82,185.6A26.21,26.21,0,0,1,160.08,626.72Z"/><path d="M520.7,420.13c0-7,4.8-11.93,12.52-11.93,8,0,10.12,4.27,9.92,7.55l-4.07.38c0-2.81-1.05-5-5.91-5-5.09,0-7.78,3.31-7.78,8.83,0,6.17,3.22,8.66,7.66,8.69,4.91,0,6.7-2,6.7-5.09,0-.35,0-.91,0-.91h-5.59v-2.81h9.62v11.32l-1.75,0-.94-2.84c-.88,1.14-3.63,3.28-8.51,3.28C525.14,431.66,520.7,427.68,520.7,420.13Z"/><path d="M548.46,412.5v-3.8h4.07v3.8Zm.09,18.66V415.75h3.89v15.42Z"/><path d="M557.26,415.75h3.89v3.1a5.63,5.63,0,0,1,5.59-3.48,4.28,4.28,0,0,1,4.65,4.59,5.44,5.44,0,0,1-.26,1.93l-3.69.35a6.78,6.78,0,0,0,.26-1.7c0-1.29-.58-2.28-2.49-2.28-2.43,0-4.07,2-4.07,4.74v8.16h-3.89Z"/><path d="M574.17,431.16V408.7h3.89v22.46Z"/><path d="M584.26,417.88H581.1v-2.13h3.16a9.32,9.32,0,0,1-.53-3c0-2.49,1.7-4.5,5.26-4.5,3.31,0,4.92,1.46,4.92,3.33a4.52,4.52,0,0,1-.18,1.29l-3.19.21a4.63,4.63,0,0,0,.12-1.14,1.48,1.48,0,0,0-1.55-1.52c-1.08,0-1.78.58-1.78,2.19a9.19,9.19,0,0,0,.7,3.1h4.62v2.13h-4.5v13.28h-3.89Z"/><path d="M595.2,415.75h3.89v3.1a5.63,5.63,0,0,1,5.59-3.48,4.28,4.28,0,0,1,4.65,4.59,5.44,5.44,0,0,1-.26,1.93l-3.69.35a6.78,6.78,0,0,0,.26-1.7c0-1.29-.58-2.28-2.49-2.28-2.43,0-4.07,2-4.07,4.74v8.16H595.2Z"/><path d="M612,412.5v-3.8h4.07v3.8Zm.09,18.66V415.75H616v15.42Z"/><path d="M620,423.82c0-5.32,3.69-8.6,9.16-8.6,5.26,0,8.07,2.93,8.07,6.49a9.11,9.11,0,0,1-.35,2.4H624.1c.15,3.1,1.84,4.88,5.41,4.88,3.28,0,4.68-1.55,4.62-3.22l2.78.23a3.91,3.91,0,0,1,.12.88c0,2-2.11,4.62-7.75,4.62C623.43,431.51,620,428.53,620,423.82Zm13.28-1.7a5.51,5.51,0,0,0,.12-.82c0-2.11-1.29-3.71-4.18-3.71-3.22,0-4.68,2.14-5,4.53Z"/><path d="M641.19,415.75h3.89v2.92c1-2.19,3.13-3.31,6-3.31,3.6,0,6.41,1.4,6.41,5.73v10.06h-3.89v-8.83c0-3-1.26-4.12-4-4.12a4.36,4.36,0,0,0-4.48,4.65v8.31h-3.89Z"/><path d="M674.74,431.16v-2.31a7,7,0,0,1-5.7,2.66c-5.29,0-7.84-3.6-7.84-8,0-4.62,2.78-8.22,8.16-8.22a6,6,0,0,1,5.38,2.78V408.7h3.89v22.46ZM670,417.79c-2.78,0-4.65,2.08-4.65,5.94,0,3.42,2,5.38,4.68,5.38s4.8-1.9,4.8-5.56C674.86,420.16,672.84,417.79,670,417.79Z"/></g></g></svg>