<svg xmlns="http://www.w3.org/2000/svg" viewBox="0 0 1013 966"><defs><style>.cls-1{fill:#c1bd9f;}.cls-2{fill:#2f4459;}.cls-3{fill:#648dbf;}.cls-4{fill:#83b6ff;}.cls-5{fill:#9e9c92;}.cls-6{fill:#d3d1c1;}.cls-7{fill:#c1bfb4;}.cls-8{fill:#fffceb;}.cls-9{fill:#42413e;}.cls-10{fill:#b7b5ab;}.cls-11{fill:#c4c4a9;}.cls-12{fill:#0b1014;}.cls-13{fill:#44433f;}.cls-14{fill:none;stroke:#31485b;stroke-linecap:round;stroke-miterlimit:10;stroke-width:6px;}.cls-15{fill:#6d6b67;}.cls-16{fill:#545332;}.cls-17{fill:#d1cf7c;}.cls-18{fill:#fff;}.cls-19{fill:#231911;}</style></defs><title>catAsset 17</title><g id="Layer_2" data-name="Layer 2"><g id="Layer_1-2" data-name="Layer 1"><polygon class="cls-1" points="931 966 187 879 112 0 1013 0 931 966"/><rect class="cls-2" x="88.85" y="716.64" width="235.53" height="43.56"/><polygon class="cls-2" points="150.15 745.67 88.85 745.67 88.85 905.38 136.44 905.38 150.15 745.67"/><polygon class="cls-2" points="323.57 745.67 262.27 745.67 279.21 902.96 323.57 905.38 323.57 745.67"/><path class="cls-3" d="M328.81,688.41h0A26.21,26.21,0,0,0,355,662.19V469a37.1,37.1,0,0,0-37.1-37.1h-1.21A14.12,14.12,0,0,0,302.6,446V662.19A26.21,26.21,0,0,0,328.81,688.41Z"/><path class="cls-4" d="M334.46,688.41h0a26.21,26.21,0,0,0,26.21-26.21V469a37.1,37.1,0,0,0-37.1-37.1h-1.21A14.12,14.12,0,0,0,308.25,446V662.19A26.21,26.21,0,0,0,334.46,688.41Z"/><rect class="cls-5" x="73.52" y="413.35" width="262.15" height="315.38" rx="33.86" ry="33.86"/><rect class="cls-6" x="95.3" y="424.65" width="237.95" height="286.34" rx="30.74" ry="30.74"/><ellipse class="cls-3" cx="232.83" cy="369.39" rx="98.81" ry="126.23"/><ellipse class="cls-4" cx="226.37" cy="369.16" rx="98.81" ry="126.23"/><ellipse class="cls-7" cx="311.47" cy="316.96" rx="35.49" ry="22.99"/><ellipse class="cls-8" cx="310.26" cy="316.96" rx="32.67" ry="22.99"/><circle class="cls-9" cx="314.7" cy="316.56" r="10.49"/><ellipse class="cls-3" cx="286.51" cy="343.27" rx="38.72" ry="20.46" transform="translate(-122.89 163.5) rotate(-26.44)"/><ellipse class="cls-4" cx="283.24" cy="347.21" rx="38.72" ry="18.55" transform="translate(-124.98 162.46) rotate(-26.44)"/><circle class="cls-3" cx="267.92" cy="346.41" r="4.03"/><circle class="cls-3" cx="292.11" cy="353.67" r="4.03"/><path class="cls-3" d="M127.57,362.54c.2,69.09,51,125,113.73,125s113.53-55.94,113.73-125Z"/><ellipse class="cls-7" cx="232.42" cy="316.96" rx="35.49" ry="22.99"/><ellipse class="cls-8" cx="232.42" cy="316.96" rx="33.07" ry="22.99"/><path class="cls-3" d="M346.52,313.33c-2.69-11-17.35-19.36-35-19.36s-32.36,8.39-35,19.36Z"/><polygon class="cls-10" points="115 814 0 814 0 705 19 644 133 644 115 705 115 814"/><polygon class="cls-11" points="38 814 153 814 153 705 134 644 20 644 38 705 38 814"/><path d="M58.7,757.19c0-3,1.94-4.94,5.07-4.94s4.09,1.64,4.09,2.75a3.16,3.16,0,0,1,0,.53l-1.62.22a3.64,3.64,0,0,0,0-.49c0-.8-.65-1.8-2.52-1.79s-3.11,1.49-3.11,3.65,1,3.53,3.11,3.53c1.81,0,2.67-.84,2.67-2.08a2.08,2.08,0,0,0,0-.41l1.54.14a2.31,2.31,0,0,1,.07.56c0,1.8-1.42,3-4.26,3C60.72,761.87,58.7,760.17,58.7,757.19Z"/><path d="M72.72,752.46h2l3.77,9.21h-2s-.74-1.89-.76-1.89H71.55l-.73,1.89H69Zm2.66,6.13-1.73-4.49L72,758.58Z"/><path d="M81.45,753.78H78.05v-1.32h8.59v1.32H83.26v7.89H81.45Z"/><path d="M92.32,752.46h7.06v1.32H94.13v2.49h4.68v1.31H94.13v4.09H92.32Z"/><path d="M100.34,757.18a4.69,4.69,0,0,1,5-4.93,4.63,4.63,0,0,1,5,4.93c0,2.76-1.83,4.69-5,4.69S100.34,760,100.34,757.18Zm8-.08c0-2.05-1.1-3.65-3-3.65s-3.07,1.68-3.07,3.67,1.12,3.53,3.06,3.53S108.38,759.12,108.37,757.1Z"/><path d="M111.69,757.18a4.69,4.69,0,0,1,5-4.93,4.63,4.63,0,0,1,5,4.93c0,2.76-1.83,4.69-5,4.69S111.69,760,111.69,757.18Zm8-.08c0-2.05-1.1-3.65-3-3.65s-3.07,1.68-3.07,3.67,1.12,3.53,3.06,3.53S119.73,759.12,119.72,757.1Z"/><path d="M123.45,752.46h4.47a4.4,4.4,0,0,1,4.62,4.8,4.08,4.08,0,0,1-4.41,4.41h-4.68Zm4.07,7.84c2.05,0,3.14-.83,3.14-3.15s-1.14-3.38-3.13-3.38h-2.27v6.54Z"/><circle class="cls-9" cx="234.04" cy="316.56" r="10.49"/><path class="cls-3" d="M267.47,311.72c-2.69-11-17.35-19.36-35-19.36s-32.36,8.39-35,19.36Z"/><path class="cls-3" d="M79.57,688.41h0a26.21,26.21,0,0,1-26.21-26.21V469a37.1,37.1,0,0,1,37.1-37.1h1.21A14.12,14.12,0,0,1,105.79,446V662.19A26.21,26.21,0,0,1,79.57,688.41Z"/><path class="cls-4" d="M73.93,688.41h0a26.21,26.21,0,0,1-26.21-26.21V469a37.1,37.1,0,0,1,37.1-37.1H86A14.12,14.12,0,0,1,100.14,446V662.19A26.21,26.21,0,0,1,73.93,688.41Z"/><path class="cls-12" d="M54.3,905.38h75.82a6.32,6.32,0,0,1,6.32,6.32v14a6.32,6.32,0,0,1-6.32,6.32H40.32A6.32,6.32,0,0,1,34,925.68v0a20.3,20.3,0,0,1,20.3-20.3Z"/><path class="cls-12" d="M279.88,902.16h89.8a6.32,6.32,0,0,1,6.32,6.32v14a6.32,6.32,0,0,1-6.32,6.32H293.86a20.3,20.3,0,0,1-20.3-20.3v0a6.32,6.32,0,0,1,6.32-6.32Z" transform="translate(649.56 1830.93) rotate(-180)"/><path class="cls-13" d="M298.57,243.16H190.88a32.67,32.67,0,0,0-32.67,32.67v2l133.9-5.65Z"/><path class="cls-14" d="M221.13,416.58a223.7,223.7,0,0,1,85.5-7.26"/><polygon class="cls-15" points="406 210 757 197 757 941 415 906 406 210"/><polygon class="cls-5" points="400 209 751 196 751 940 409 905 400 209"/><circle class="cls-16" cx="693" cy="601" r="33"/><circle class="cls-17" cx="688" cy="602" r="33"/><polygon class="cls-18" points="667 442 466 432 466 369 667 365 667 442"/><path class="cls-19" d="M494.15,382.32H500v12.1h16.74v-12.1h5.8V412h-5.8V398.75H500V412h-5.84Z"/><path class="cls-19" d="M528.34,397.55c0-10.17,7.12-15.89,16.08-15.89,8.82,0,16,5.34,16,15.89,0,8.89-5.92,15.12-16,15.12C534.45,412.67,528.34,406.68,528.34,397.55Zm25.91-.27c0-6.61-3.56-11.75-9.82-11.75-6.42,0-9.9,5.41-9.9,11.83,0,6.65,3.6,11.37,9.86,11.37C551.07,408.73,554.28,403.82,554.24,397.28Z"/><path class="cls-19" d="M566.24,382.32h8.58l9,22.19,9-22.19h8.51V412h-5.45V387.38L586.15,412h-4.72l-9.74-24.63V412h-5.45Z"/><path class="cls-19" d="M608.5,382.32h23.35v4.25H614.34v7.93h15.81v4.06H614.34v9.09h18.95V412H608.5Z"/></g></g></svg>