<svg xmlns="http://www.w3.org/2000/svg" viewBox="0 0 539.5 701.1"><defs><style>.cls-1{fill:#2f4459;}.cls-2{fill:#648dbf;}.cls-3{fill:#83b6ff;}.cls-4{fill:#9e9c92;}.cls-5{fill:#d3d1c1;}.cls-6{fill:#0b1014;}.cls-7{fill:#c1bfb4;}.cls-8{fill:#fffceb;}.cls-9{fill:#42413e;}.cls-10{fill:#44433f;}.cls-11,.cls-14{fill:none;stroke-miterlimit:10;}.cls-11{stroke:#31485b;stroke-linecap:round;stroke-width:6px;}.cls-12{fill:#383831;}.cls-13{fill:#b22f2d;}.cls-14{stroke:#383831;stroke-width:3px;}</style></defs><title>phoneAsset 15</title><g id="Layer_2" data-name="Layer 2"><g id="Layer_1-2" data-name="Layer 1"><rect class="cls-1" x="54.85" y="485.74" width="235.53" height="43.56"/><polygon class="cls-1" points="116.15 514.78 54.85 514.78 54.85 674.49 102.44 674.49 116.15 514.78"/><polygon class="cls-1" points="289.57 514.78 228.27 514.78 245.21 672.07 289.57 674.49 289.57 514.78"/><path class="cls-2" d="M411.58,434.69h0a26.21,26.21,0,0,0,7.89-36.22L315.05,235.93a37.1,37.1,0,0,0-51.27-11.16l-1,.65a14.12,14.12,0,0,0-4.25,19.51L375.35,426.8A26.21,26.21,0,0,0,411.58,434.69Z"/><path class="cls-3" d="M416.33,431.64h0a26.21,26.21,0,0,0,7.89-36.22L319.8,232.88a37.1,37.1,0,0,0-51.27-11.16l-1,.65a14.12,14.12,0,0,0-4.25,19.51L380.1,423.75A26.21,26.21,0,0,0,416.33,431.64Z"/><rect class="cls-4" x="39.52" y="182.46" width="262.15" height="315.38" rx="33.86" ry="33.86"/><rect class="cls-5" x="61.3" y="193.75" width="237.95" height="286.34" rx="30.74" ry="30.74"/><path class="cls-2" d="M45.57,457.51h0A26.21,26.21,0,0,1,19.36,431.3V238.11A37.1,37.1,0,0,1,56.46,201h1.21a14.12,14.12,0,0,1,14.12,14.12V431.3A26.21,26.21,0,0,1,45.57,457.51Z"/><path class="cls-3" d="M39.93,457.51h0A26.21,26.21,0,0,1,13.71,431.3V238.11A37.1,37.1,0,0,1,50.82,201H52a14.12,14.12,0,0,1,14.12,14.12V431.3A26.21,26.21,0,0,1,39.93,457.51Z"/><path class="cls-6" d="M20.3,674.49H96.12a6.32,6.32,0,0,1,6.32,6.32v14a6.32,6.32,0,0,1-6.32,6.32H6.32A6.32,6.32,0,0,1,0,694.79v0a20.3,20.3,0,0,1,20.3-20.3Z"/><path class="cls-6" d="M245.88,671.26h89.8a6.32,6.32,0,0,1,6.32,6.32v14a6.32,6.32,0,0,1-6.32,6.32H259.86a20.3,20.3,0,0,1-20.3-20.3v0a6.32,6.32,0,0,1,6.32-6.32Z" transform="translate(581.56 1369.14) rotate(-180)"/><ellipse class="cls-2" cx="200.19" cy="133.78" rx="126.23" ry="98.81" transform="translate(-22.23 225.98) rotate(-56.27)"/><ellipse class="cls-3" cx="194.95" cy="130" rx="126.23" ry="98.81" transform="translate(-21.42 219.94) rotate(-56.27)"/><ellipse class="cls-7" cx="294.71" cy="133.84" rx="22.99" ry="35.49" transform="translate(19.74 304.61) rotate(-56.27)"/><ellipse class="cls-8" cx="293.7" cy="133.17" rx="22.99" ry="32.67" transform="translate(19.86 303.48) rotate(-56.27)"/><circle class="cls-9" cx="297.62" cy="135.3" r="10.49" transform="translate(19.83 307.68) rotate(-56.27)"/><ellipse class="cls-2" cx="259.34" cy="141.86" rx="20.46" ry="38.72" transform="translate(85.73 381.11) rotate(-82.71)"/><ellipse class="cls-3" cx="254.43" cy="143.32" rx="18.55" ry="38.72" transform="translate(79.99 377.52) rotate(-82.71)"/><circle class="cls-2" cx="242.14" cy="134.14" r="4.03" transform="translate(-3.88 261.02) rotate(-56.27)"/><circle class="cls-2" cx="258.23" cy="153.62" r="4.03" transform="translate(-12.92 283.07) rotate(-56.27)"/><path class="cls-2" d="M116.46,69.62c-38.2,57.56-27,132.32,25.16,167.13s125.48,16.52,164-40.82Z"/><ellipse class="cls-7" cx="228.97" cy="89.95" rx="22.99" ry="35.49" transform="translate(27.02 230.42) rotate(-56.27)"/><ellipse class="cls-8" cx="228.97" cy="89.95" rx="22.99" ry="33.07" transform="translate(27.02 230.42) rotate(-56.27)"/><path class="cls-2" d="M325.87,150.29c3.86-10.62-3.68-25.74-18.4-35.56s-31.57-11-39.9-3.36Z"/><circle class="cls-9" cx="230.53" cy="90.51" r="10.49" transform="translate(27.25 231.97) rotate(-56.27)"/><path class="cls-2" d="M261,105.05c3.86-10.62-3.68-25.74-18.4-35.56s-31.57-11-39.9-3.36Z"/><path class="cls-10" d="M325,65.3,235.41,5.5a32.67,32.67,0,0,0-45.31,9L189,16.21,303.47,85.86Z"/><path class="cls-11" d="M164.26,166.52A223.7,223.7,0,0,1,239.4,208"/><rect class="cls-12" x="372.55" y="337.86" width="68.66" height="108.84" transform="translate(352.52 -170.29) rotate(40.53)"/><rect class="cls-13" x="378.93" y="348.54" width="55.59" height="87.82" transform="translate(352.59 -170.15) rotate(40.53)"/><path class="cls-14" d="M493,366.1c0-21.56-18.34-39-41-39"/><path class="cls-14" d="M514,368.1c0-34.82-25.49-63-57-63"/><path class="cls-14" d="M538,369.1c0-50.3-35.33-91-79-91"/></g></g></svg>