<svg xmlns="http://www.w3.org/2000/svg" viewBox="0 0 898 850"><defs><style>.cls-1{fill:#aaaaa9;}.cls-2{fill:#2f4459;}.cls-3{fill:#648dbf;}.cls-4{fill:#83b6ff;}.cls-5{fill:#9e9c92;}.cls-6{fill:#d3d1c1;}.cls-7{fill:#c1bfb4;}.cls-8{fill:#fffceb;}.cls-9{fill:#42413e;}.cls-10{fill:#0b1014;}.cls-11{fill:#44433f;}.cls-12{fill:none;stroke:#31485b;}.cls-12,.cls-15{stroke-linecap:round;stroke-miterlimit:10;stroke-width:6px;}.cls-13{fill:#474747;}.cls-14,.cls-15{fill:#66c671;}.cls-15{stroke:#5b5b5b;}</style></defs><title>walkAsset 3</title><g id="Layer_2" data-name="Layer 2"><g id="Layer_1-2" data-name="Layer 1"><polygon class="cls-1" points="898 850 0 850 90 757 777 754 898 850"/><rect class="cls-2" x="293.85" y="579.64" width="235.53" height="43.56"/><polygon class="cls-2" points="526.53 584.05 473.45 614.7 566.76 742.44 606.39 722.36 526.53 584.05"/><polygon class="cls-2" points="365.9 611.6 311.27 583.79 254.99 731.64 293.43 753.92 365.9 611.6"/><path class="cls-3" d="M620.81,548.45h0a26.21,26.21,0,0,0,14-34.33l-75-178a37.1,37.1,0,0,0-48.6-19.8l-1.12.47a14.12,14.12,0,0,0-7.53,18.49l83.89,199.23A26.21,26.21,0,0,0,620.81,548.45Z"/><path class="cls-4" d="M626,546.26h0a26.21,26.21,0,0,0,14-34.33l-75-178a37.1,37.1,0,0,0-48.6-19.8l-1.12.47A14.12,14.12,0,0,0,507.78,333l83.89,199.23A26.21,26.21,0,0,0,626,546.26Z"/><rect class="cls-5" x="278.52" y="276.35" width="262.15" height="315.38" rx="33.86" ry="33.86"/><rect class="cls-6" x="300.3" y="287.65" width="237.95" height="286.34" rx="30.74" ry="30.74"/><ellipse class="cls-3" cx="437.83" cy="232.39" rx="98.81" ry="126.23"/><ellipse class="cls-4" cx="431.37" cy="232.16" rx="98.81" ry="126.23"/><ellipse class="cls-7" cx="516.47" cy="179.96" rx="35.49" ry="22.99"/><ellipse class="cls-8" cx="515.26" cy="179.96" rx="32.67" ry="22.99"/><circle class="cls-9" cx="519.7" cy="179.56" r="10.49"/><ellipse class="cls-3" cx="491.51" cy="206.27" rx="38.72" ry="20.46" transform="translate(-40.43 240.46) rotate(-26.44)"/><ellipse class="cls-4" cx="488.24" cy="210.21" rx="38.72" ry="18.55" transform="translate(-42.53 239.42) rotate(-26.44)"/><circle class="cls-3" cx="472.92" cy="209.41" r="4.03"/><circle class="cls-3" cx="497.11" cy="216.67" r="4.03"/><path class="cls-3" d="M332.57,225.54c.2,69.09,51,125,113.73,125s113.53-55.94,113.73-125Z"/><ellipse class="cls-7" cx="437.42" cy="179.96" rx="35.49" ry="22.99"/><ellipse class="cls-8" cx="437.42" cy="179.96" rx="33.07" ry="22.99"/><path class="cls-3" d="M551.52,176.33c-2.69-11-17.35-19.36-35-19.36s-32.36,8.39-35,19.36Z"/><circle class="cls-9" cx="439.04" cy="179.56" r="10.49"/><path class="cls-3" d="M472.47,174.72c-2.69-11-17.35-19.36-35-19.36s-32.36,8.39-35,19.36Z"/><path class="cls-3" d="M212.72,529.7h0A26.21,26.21,0,0,1,197,496.12l65.8-181.63a37.1,37.1,0,0,1,47.52-22.25l1.14.41a14.12,14.12,0,0,1,8.46,18.08L246.3,514A26.21,26.21,0,0,1,212.72,529.7Z"/><path class="cls-4" d="M207.41,527.78h0A26.21,26.21,0,0,1,191.7,494.2l65.8-181.63A37.1,37.1,0,0,1,305,290.32l1.14.41a14.12,14.12,0,0,1,8.46,18.08L241,512.06A26.21,26.21,0,0,1,207.41,527.78Z"/><path class="cls-10" d="M572.88,711.16h89.8a6.32,6.32,0,0,1,6.32,6.32v14a6.32,6.32,0,0,1-6.32,6.32H586.86a20.3,20.3,0,0,1-20.3-20.3v0A6.32,6.32,0,0,1,572.88,711.16Z" transform="translate(1515.03 1042.98) rotate(150)"/><path class="cls-10" d="M250.88,749.16h89.8a6.32,6.32,0,0,1,6.32,6.32v14a6.32,6.32,0,0,1-6.32,6.32H264.86a20.3,20.3,0,0,1-20.3-20.3v0A6.32,6.32,0,0,1,250.88,749.16Z" transform="translate(224.89 1577.21) rotate(-153.82)"/><path class="cls-11" d="M503.57,106.16H395.88a32.67,32.67,0,0,0-32.67,32.67v2l133.9-5.65Z"/><path class="cls-12" d="M426.13,279.58a223.7,223.7,0,0,1,85.5-7.26"/><rect class="cls-1" x="769" y="232" width="26" height="522"/><rect class="cls-1" x="706" width="170" height="232" rx="35.34" ry="35.34"/><rect class="cls-13" x="717.72" y="16" width="146.55" height="200" rx="30.47" ry="30.47"/><rect class="cls-14" x="758.93" y="148.14" width="56.6" height="10.47"/><polygon class="cls-14" points="814.85 149.2 802.09 156.57 824.52 187.27 834.04 182.44 814.85 149.2"/><polygon class="cls-14" points="776.24 155.82 763.12 149.14 749.59 184.67 758.83 190.03 776.24 155.82"/><path class="cls-14" d="M837.5,140.65h0a6.3,6.3,0,0,0,3.36-8.25l-18-42.79a8.92,8.92,0,0,0-11.68-4.76l-.27.11a3.39,3.39,0,0,0-1.81,4.44l20.16,47.88A6.3,6.3,0,0,0,837.5,140.65Z"/><path class="cls-14" d="M838.76,140.12h0a6.3,6.3,0,0,0,3.36-8.25l-18-42.79a8.92,8.92,0,0,0-11.68-4.76l-.27.11a3.39,3.39,0,0,0-1.81,4.44l20.16,47.88A6.3,6.3,0,0,0,838.76,140.12Z"/><rect class="cls-14" x="755.25" y="75.25" width="63" height="75.79" rx="8.14" ry="8.14"/><rect class="cls-14" x="760.48" y="77.97" width="57.18" height="68.82" rx="7.39" ry="7.39"/><ellipse class="cls-14" cx="793.53" cy="64.69" rx="23.75" ry="30.34"/><ellipse class="cls-14" cx="791.98" cy="64.63" rx="23.75" ry="30.34"/><ellipse class="cls-14" cx="812.43" cy="52.09" rx="8.53" ry="5.52"/><ellipse class="cls-14" cx="812.14" cy="52.09" rx="7.85" ry="5.52"/><circle class="cls-14" cx="813.21" cy="51.99" r="2.52"/><ellipse class="cls-14" cx="806.43" cy="58.41" rx="9.3" ry="4.92" transform="translate(58.36 365.23) rotate(-26.44)"/><ellipse class="cls-14" cx="805.65" cy="59.36" rx="9.3" ry="4.46" transform="translate(57.86 364.98) rotate(-26.44)"/><circle class="cls-14" cx="801.96" cy="59.16" r="0.97"/><circle class="cls-14" cx="807.78" cy="60.91" r="0.97"/><path class="cls-14" d="M768.23,63c0,16.6,12.27,30,27.33,30s27.29-13.44,27.33-30Z"/><ellipse class="cls-14" cx="793.43" cy="52.09" rx="8.53" ry="5.52"/><ellipse class="cls-14" cx="793.43" cy="52.09" rx="7.95" ry="5.52"/><path class="cls-14" d="M820.85,51.22c-.65-2.64-4.17-4.65-8.42-4.65s-7.78,2-8.42,4.65Z"/><circle class="cls-14" cx="793.82" cy="51.99" r="2.52"/><path class="cls-14" d="M801.86,50.83c-.65-2.64-4.17-4.65-8.42-4.65s-7.78,2-8.42,4.65Z"/><path class="cls-14" d="M739.43,136.14h0a6.3,6.3,0,0,1-3.78-8.07l15.81-43.65a8.92,8.92,0,0,1,11.42-5.35l.27.1a3.39,3.39,0,0,1,2,4.34L747.5,132.36A6.3,6.3,0,0,1,739.43,136.14Z"/><path class="cls-14" d="M738.16,135.68h0a6.3,6.3,0,0,1-3.78-8.07L750.19,84a8.92,8.92,0,0,1,11.42-5.35l.27.1a3.39,3.39,0,0,1,2,4.34L746.23,131.9A6.3,6.3,0,0,1,738.16,135.68Z"/><path class="cls-14" d="M826,179.75h21.58a1.52,1.52,0,0,1,1.52,1.52v3.36a1.52,1.52,0,0,1-1.52,1.52H829.35a4.88,4.88,0,0,1-4.88-4.88v0A1.52,1.52,0,0,1,826,179.75Z" transform="translate(1652.92 -77.01) rotate(150)"/><path class="cls-14" d="M748.6,188.88h21.58a1.52,1.52,0,0,1,1.52,1.52v3.36a1.52,1.52,0,0,1-1.52,1.52H752a4.88,4.88,0,0,1-4.88-4.88v0a1.52,1.52,0,0,1,1.52-1.52Z" transform="translate(1356.18 699.44) rotate(-153.82)"/><path class="cls-14" d="M809.33,34.35H783.45a7.85,7.85,0,0,0-7.85,7.85v.48l32.18-1.36Z"/><path class="cls-15" d="M790.72,76a53.76,53.76,0,0,1,20.55-1.74"/></g></g></svg>