<svg xmlns="http://www.w3.org/2000/svg" viewBox="0 0 979 966"><defs><style>.cls-1{fill:#c1bd9f;}.cls-2{fill:#2f4459;}.cls-3{fill:#648dbf;}.cls-4{fill:#83b6ff;}.cls-5{fill:#9e9c92;}.cls-6{fill:#d3d1c1;}.cls-7{fill:#c1bfb4;}.cls-8{fill:#fffceb;}.cls-9{fill:#42413e;}.cls-10{fill:#0b1014;}.cls-11{fill:#44433f;}.cls-12{fill:none;stroke:#31485b;stroke-linecap:round;stroke-miterlimit:10;stroke-width:6px;}.cls-13{fill:#6d6b67;}.cls-14{fill:#545332;}.cls-15{fill:#d1cf7c;}.cls-16{fill:#fff;}.cls-17{fill:#333230;}</style></defs><title>workAsset 6</title><g id="Layer_2" data-name="Layer 2"><g id="Layer_1-2" data-name="Layer 1"><polygon class="cls-1" points="897 966 153 879 78 0 979 0 897 966"/><rect class="cls-2" x="54.85" y="716.64" width="235.53" height="43.56"/><polygon class="cls-2" points="116.15 745.67 54.85 745.67 54.85 905.38 102.44 905.38 116.15 745.67"/><polygon class="cls-2" points="289.57 745.67 228.27 745.67 245.21 902.96 289.57 905.38 289.57 745.67"/><path class="cls-3" d="M294.81,688.41h0A26.21,26.21,0,0,0,321,662.19V469a37.1,37.1,0,0,0-37.1-37.1h-1.21A14.12,14.12,0,0,0,268.6,446V662.19A26.21,26.21,0,0,0,294.81,688.41Z"/><path class="cls-4" d="M300.46,688.41h0a26.21,26.21,0,0,0,26.21-26.21V469a37.1,37.1,0,0,0-37.1-37.1h-1.21A14.12,14.12,0,0,0,274.25,446V662.19A26.21,26.21,0,0,0,300.46,688.41Z"/><rect class="cls-5" x="39.52" y="413.35" width="262.15" height="315.38" rx="33.86" ry="33.86"/><rect class="cls-6" x="61.3" y="424.65" width="237.95" height="286.34" rx="30.74" ry="30.74"/><ellipse class="cls-3" cx="198.83" cy="369.39" rx="98.81" ry="126.23"/><ellipse class="cls-4" cx="192.38" cy="369.16" rx="98.81" ry="126.23"/><ellipse class="cls-7" cx="277.47" cy="316.96" rx="35.49" ry="22.99"/><ellipse class="cls-8" cx="276.26" cy="316.96" rx="32.67" ry="22.99"/><circle class="cls-9" cx="280.7" cy="316.56" r="10.49"/><ellipse class="cls-3" cx="252.51" cy="343.27" rx="38.72" ry="20.46" transform="translate(-126.45 148.36) rotate(-26.44)"/><ellipse class="cls-4" cx="249.24" cy="347.21" rx="38.72" ry="18.55" transform="translate(-128.54 147.32) rotate(-26.44)"/><circle class="cls-3" cx="233.92" cy="346.41" r="4.03"/><circle class="cls-3" cx="258.11" cy="353.67" r="4.03"/><path class="cls-3" d="M93.57,362.54c.2,69.09,51,125,113.73,125s113.53-55.94,113.73-125Z"/><ellipse class="cls-7" cx="198.42" cy="316.96" rx="35.49" ry="22.99"/><ellipse class="cls-8" cx="198.42" cy="316.96" rx="33.07" ry="22.99"/><path class="cls-3" d="M312.52,313.33c-2.69-11-17.35-19.36-35-19.36s-32.36,8.39-35,19.36Z"/><circle class="cls-9" cx="200.04" cy="316.56" r="10.49"/><path class="cls-3" d="M233.47,311.72c-2.69-11-17.35-19.36-35-19.36s-32.36,8.39-35,19.36Z"/><path class="cls-3" d="M45.57,688.41h0a26.21,26.21,0,0,1-26.21-26.21V469a37.1,37.1,0,0,1,37.1-37.1h1.21A14.12,14.12,0,0,1,71.79,446V662.19A26.21,26.21,0,0,1,45.57,688.41Z"/><path class="cls-4" d="M39.93,688.41h0a26.21,26.21,0,0,1-26.21-26.21V469a37.1,37.1,0,0,1,37.1-37.1H52A14.12,14.12,0,0,1,66.14,446V662.19A26.21,26.21,0,0,1,39.93,688.41Z"/><path class="cls-10" d="M20.3,905.38H96.12a6.32,6.32,0,0,1,6.32,6.32v14A6.32,6.32,0,0,1,96.12,932H6.32A6.32,6.32,0,0,1,0,925.68v0a20.3,20.3,0,0,1,20.3-20.3Z"/><path class="cls-10" d="M245.88,902.16h89.8a6.32,6.32,0,0,1,6.32,6.32v14a6.32,6.32,0,0,1-6.32,6.32H259.86a20.3,20.3,0,0,1-20.3-20.3v0a6.32,6.32,0,0,1,6.32-6.32Z" transform="translate(581.56 1830.93) rotate(-180)"/><path class="cls-11" d="M264.57,243.16H156.88a32.67,32.67,0,0,0-32.67,32.67v2l133.9-5.65Z"/><path class="cls-12" d="M187.13,416.58a223.7,223.7,0,0,1,85.5-7.26"/><polygon class="cls-13" points="372 210 723 197 723 941 381 906 372 210"/><polygon class="cls-5" points="366 209 717 196 717 940 375 905 366 209"/><circle class="cls-14" cx="659" cy="601" r="33"/><circle class="cls-15" cx="654" cy="602" r="33"/><polygon class="cls-16" points="633 442 432 432 432 369 633 365 633 442"/><path class="cls-17" d="M458.48,387.69H465L471.92,411l7.38-23.28h6.13l7.42,23.24,7-23.24h6.09l-10.45,31h-6.09l-7.06-22.87-7.14,22.88H469Z"/><path class="cls-17" d="M507.26,403.58C507.26,393,514.69,387,524,387c9.2,0,16.7,5.57,16.7,16.58,0,9.28-6.17,15.77-16.74,15.77C513.64,419.36,507.26,413.1,507.26,403.58Zm27-.28c0-6.9-3.71-12.26-10.25-12.26-6.7,0-10.33,5.65-10.33,12.35,0,6.94,3.75,11.86,10.29,11.86C531,415.24,534.34,410.12,534.29,403.3Z"/><path class="cls-17" d="M546.81,387.69h16.86c7.91,0,11.7,3.31,11.7,9.12,0,4.84-3.11,7.34-7.87,7.79,4.36.28,5.37,3.43,6.13,7.67.4,2.42.93,4.92,2.34,6.41H569.2c-.93-1.13-1.41-3.15-2-6.62-.61-4-1.37-5.65-5.65-5.65H552.9v12.26h-6.09Zm15,14.48c5.33,0,7.26-1.61,7.26-5,0-3.59-1.78-5-7.18-5h-9v10.09Z"/><path class="cls-17" d="M581.91,387.69H588v15.86l14.2-15.86h7.06l-11.7,12.43,13.11,18.56h-7.14l-10-14-5.49,6v8.07h-6.09Z"/></g></g></svg>